<svg version="1.2" xmlns="http://www.w3.org/2000/svg" viewBox="0 0 576 580" width="576" height="580"><style>.a{fill:#f00;stroke:#fff;stroke-miterlimit:10;stroke-width:20}</style><path class="a" d="m253.2 565c-17.4-2.3-34.6-22.2-34.6-39.5v-29.7h138.4v34c0 15.4-19.9 33.3-34.6 35.2-13.2 1.6-56 1.6-69.2 0z"/><path class="a" d="m11 292.5v-8.7c2.7-6 6.8-11.5 13.7-12.7 7.3-1.2 48-1.2 54.1 0.6 15.8 4.7 15.9 28.2 0 32.9-6.1 1.8-46.8 1.8-54.1 0.6-6.9-1.2-11-6.8-13.7-12.7z"/><path fill-rule="evenodd" class="a" d="m357.9 461l-141.4 0.1c-0.5-5.2-2-10.3-3.9-15.1-9.6-24.4-33-35-49.1-54.6-98.8-120.2 10.7-295.7 162.8-260.2 109.6 25.6 158.8 157.5 93.6 249.6-12.6 17.9-24.3 25.4-39.1 39.8-11.3 10.9-19.4 25.1-22.9 40.4zm-68.3-276.4c-12.4 2.6-17.8 19.3-8.7 28.8 6.4 6.8 11.9 4.3 19.2 5.7 31.5 5.8 51.1 23.8 56.6 55.8 1.6 9.3-1 18.1 10.4 23.2 17 7.5 25.4-8.3 24.5-23.5-2-33.1-25.8-66.7-55.5-80.7-11.1-5.3-34.6-11.8-46.5-9.3z"/><path class="a" d="m284.3 11.6c10.4-1.7 19.6 4.8 20.8 15.4 0.9 8.9 1.3 42.7-0.3 50.6-3.7 18.5-32.1 17.8-34.3-1.9-1.1-9.8-1.3-41.3 0.2-50.6 1.1-6.3 7.1-12.5 13.6-13.5z"/><path class="a" d="m498.3 271.1c9.2-1.7 39.5-1.2 49.6-0.3 22.3 2 21.5 31.9 2 34.6-7.6 1-45.9 1.2-52.4-0.5-17.4-4.4-16.3-30.7 0.8-33.8z"/><path class="a" d="m102.7 87.3c4.5-0.5 8.9 1.4 12.6 4.1 4.7 3.4 32.7 31.4 35.4 35.9 9.4 15.4-6.6 32.6-22.5 24.7-3.5-1.8-35-32.9-37.7-36.9-7.7-11.5-1.6-26.5 12.2-27.8z"/><path class="a" d="m469.2 87.2c14.7-2 24.4 14.5 16.3 27.2-2.7 4.2-32.1 33.6-36.2 36.2-16.2 10.3-33.8-6.5-24.9-22.7 2.4-4.3 30.4-32.3 35.3-36 2.4-1.9 6.5-4.2 9.5-4.7z"/><path class="a" d="m436.7 422.5c5.5-0.8 9.5 0.9 13.8 4.1 5.5 4.1 30.9 29.2 34.5 34.6 11.4 16.6-6.8 35.3-23.5 24.6-4.3-2.7-32.7-31.1-35.8-35.5-7.5-11-2.4-25.9 11-27.8z"/><path class="a" d="m134 422.5c13.9-1.7 23.9 12.5 17.6 25.2-1.8 3.6-32.8 34.9-36.9 37.7-16.4 11.3-35.2-7-24.6-23.5 2.6-4.2 35.3-36.4 38.8-37.9 1.5-0.7 3.5-1.3 5.1-1.5z"/></svg>