<svg version="1.2" xmlns="http://www.w3.org/2000/svg" viewBox="0 0 788 208" width="788" height="208"><style>.a{fill:#fff}.b{fill:#d71921}</style><path class="a" d="m585.9 80.4h-29.7-45.5v19.2h0.7q3.9 0 4.6 1.7 0.6 1.7 0.6 4.2v13.3h-21.4v-13.3q0-3.4 0.9-4.6 1-1.3 4.1-1.3h0.7v-19.2h-47.5v19.2h5.6 0.2q2.1 0 3.5 0.7 1.5 0.8 1.5 5.1v53.7q0 4.3-1.5 5-1.4 0.8-3.5 0.8h-0.2-19.6v-6.7-0.2-0.2q0.3-3.6 1.2-5.4 0.9-1.9 4.3-1.9h0.5 0.4v-18.9h-48.8v18.9h2.6 1.2q0.7 0 1.6 0.3 1.2 0.2 2.2 0.8 1.1 0.7 1.1 2.2v3.2q0 3-4.1 5.6c-1.6 1-18.4 4.4-22.1-4.7-2-4.8-1.6-11.8-1.6-20.1v-0.3-0.3-10.7q0-11.5 1.7-19.7 1.7-8.2 11.3-8.2 7.7 0 9.8 6 2.2 6.1 2.3 15.1h35.2q-0.4-17.6-13.2-29.7-12.8-12.2-34.3-12.2-22.3 0-34.8 15.7-12.5 15.7-12.5 38.7 0 21.2 7.2 32.7h-20.3-0.2q-2.2 0-3.7-0.8-1.5-0.7-1.5-5v-53.9q0-4.3 1.5-5 1.5-0.7 3.7-0.7h0.2 5.4v-19.1h-52.5v19.1h5.6 0.2q2 0 3.5 0.7 1.5 0.7 1.5 5v53.9q0 4.3-1.5 5c-0.6 0.3-1.2 0.5-1.9 0.6l-7.4 0.2h-0.6c-1.5-0.1-4.9-1-4.9-7q0 0 0 0 0.5-3.2 0.5-6.8 0-16.6-12.1-23.4-12-6.9-28.3-11.6-1.2-0.3-2.3-0.6-1-0.4-1.9-0.7-4.7-1.8-6.2-3.8-1.5-2-1.5-5.3 0-4.3 2.2-6.5 2.3-2.2 6.7-2.2 4.8 0 6.8 1.7 1.9 1.8 2.5 3.9 0.2 0.9 0.3 1.8 0 0.9 0 1.6v3.6h33.5v-0.9-1q0-16.6-9.5-23.1-9.5-6.5-20.8-8-3.8-0.4-7.5-0.6-3.7-0.1-7-0.1-3.6 0-8.3 0.4-4.8 0.3-9.8 1.5-9.3 2.5-17.2 9.5-7.8 7.1-7.8 22.3 0 13 7 19.7 7 6.7 19.5 12.2 3.8 1.6 8 3.3 4.1 1.8 8.8 3.6 0.7 0.3 1.6 0.7 0.8 0.3 1.7 0.8 2.1 1.1 3.9 2.8 1.8 1.7 1.8 4.4 0 0.6-0.1 1.6-0.2 1-0.6 2.2-0.9 1.7-3.1 3-1 0.6-2.6 1h-8.1c-1.9-0.4-3.3-1-4.3-2q-2.4-2.4-2.7-5.5v-0.4-0.6-1.1q0-0.6 0.1-1.2h-4.6-29.2-5.2v-74h-30.8v46.8l-31.6-46.8h-30.8v84.8h-13.3-0.2q-2.2 0-3.7-0.8-1.4-0.7-1.4-5v-53.9q0-4.3 1.4-5 1.5-0.7 3.7-0.7h0.2 5.5v-19.1h-52.6v19.1h5.6 0.2q2.1 0 3.5 0.7 1.5 0.7 1.5 5v53.9q0 4.3-1.5 5-1.4 0.8-3.5 0.8h-0.2-27.5v19.1h82.3 5.9 24.9v-47.2l30.5 47.2h23.6 8.3 28c1.2 0.3 2.4 0.7 3.6 0.9q5 1 9.7 1.3 4.8 0.2 8.6 0.2 3.1 0 9.2-0.5 5.4-0.4 11.1-1.9h31.1 12.9 79.1c2.4 0.7 4.8 1.2 7.2 1.6q4.9 0.7 8.9 0.7 8 0 13.3-1.9c0.4-0.1 0.8-0.3 1.2-0.4h14.7 8.4 8.1 2.4 61.7v-19.1h-0.6-0.3q-2.5 0-3.8-0.8-1.2-0.7-1.2-5v-19.5h21.4v19.5q0 4.3-1.5 5-1.4 0.8-3.5 0.8h-0.2-0.7v19.1h47.8v-19.1h-5.6-0.2-0.3-0.3q-1.7 0-3.1-0.9-1.4-0.9-1.4-4.9v-53.7q0-4 1.4-4.9 1.4-0.9 3.1-0.9h0.3 0.3 0.2 22v84.4h27v-84.5h32.5v-19.1z"/><path class="b" d="m101.8 205h12.6v-6.6h-12.6z"/><path class="b" d="m415 148.9h5.9v34.5h3.1v-34.5h5.9v-5.1h-14.9z"/><path fill-rule="evenodd" class="b" d="m613 105v69h9v22.1h-64.7v11.2h-77.7v-17.8l-73.1 0.1c-4.1 1.5-9.2 2.2-15.2 2.2-2.9 0-6.2-0.2-9.7-0.8-2.2-0.3-4.5-0.8-7.2-1.5h-4.9v0.2h-3.1v-0.2h-54v5.4h-14.6v5.2h132.9v-4.1h6.7v11.4h-6.7v-4.2h-136v-11.4h14.6v-2.3h-21.1v13.3h-1.6v0.4h-9.6v-8.5h-6.3v12.9h-109.3v-14.7h38.3v-3.4h-52.7l-22-34.1v34.1h-15v8.8h-3.2v-8.8h-105.9v-30.1h32.7q0-0.1 0-0.3v-9.7h-11.6v1.2q0 0.1-0.1 0.1h-3.1q-0.1 0-0.1-0.1v-6.2q0 0 0.1-0.1h3.1q0.1 0.1 0.1 0.1v2.3h11.6v-5.8h-30v-16.5h8.7v-39.9h10.5v-21.3h18.7v3.6h17.1v-15.5h81.8v14.9h13.3v8.5h11.1v-8.2h0.1 46.7v-11.4h16.8v9.9h56.8v-9.7h90.6v7.2h118.5v-20.4h25.6v20.4h51.7v-18.4h31.3l14.3 28.5-17.1-25.7h-25.8v18.4h-57.1v-20.5h-20.1v26.3h-20.1v3.8h141.8l-1.6-2.3 1.2 2.3h21.5v30.1zm-118.6-39.7h-135.9v7.6h23.1v0.2c2.9-0.4 6-0.7 9.2-0.7 15.7 0 28.5 4.5 38 13.6 9.6 9.1 14.6 20.4 15 33.6l0.1 5.6h-46.2l-0.1-5.4c-0.1-5.4-0.8-9.9-2-13.3-0.4-1.1-0.8-2.5-4.7-2.5-4.7 0-5.5 1.9-5.9 3.9-1.1 5.1-1.6 11.3-1.6 18.6v14.6c-0.1 6.2-0.1 11.6 1.2 14.8 1 2.4 5.8 2.7 7.7 2.7 3.3 0 5.9-0.6 6.8-0.9 0.7-0.5 1-0.8 1.2-1v-0.7h-8.8v-29.9h59.8v29.9h-6.1q-0.1 0.7-0.2 2.1v1.3h13.8c0-0.1 0-53.9 0-54q0-0.2 0-0.3h-10.8v-30.2h26.9v-6.2h19.5zm-87.8 121.5h97.3v-24.6h-3.7q-0.5 0-0.9 0l-1.2-0.1-0.1-1.2q0-0.6-0.1-1.7v-16.8h16v16.8c0 0.8 0 1.4-0.1 1.7l-0.1 1.1-1 0.1q-0.5 0.1-1.1 0.1h-3.6v24.6h53.3v-24.6h-9.1q-0.3 0-0.6 0l-1-0.2-0.1-1c-0.1-0.4-0.1-1-0.1-1.8v-53.8c0-0.8 0-1.4 0.1-1.8l0.1-1 1-0.2q0.3 0 0.6 0h20.1v84.4h32.4v-84.5h32.5v-24.6h-102.8v48.4h3.4v6.6h-9.9v-6.6h3.4v-48.4h-23.3v24.7h3.5q0.7 0 1.1 0.1l1 0.1 0.2 1q0.1 0.7 0.1 2v10.6h-16v-10.6c0-0.9 0.1-1.6 0.2-2l0.1-1 1.1-0.1q0.3-0.1 0.9-0.1h3.5v-24.7h-26.6v67.1h-15.6v14.4q0 1.2-0.1 1.7l-0.1 1.1-1 0.1q-0.5 0.1-1.1 0.1h-17v-4.3q0.2-2.2 0.7-3.6l0.2-0.8 0.9-0.1q0.3-0.1 1-0.1h3.6v-24.4h-54.3v24.4h6.5c0.3 0.1 0.5 0.1 0.8 0.2l0.4 0.1 1.2 0.2-0.2 1.1v2.2c0 1.2-1.6 2.5-2.6 3.1l-0.3 0.1c-0.8 0.3-3.9 1.1-7.8 1.1-3.8 0-8.7-0.8-10.2-4.4-1.5-3.7-1.5-9.4-1.5-15.9l0.1-14.5c0-7.5 0.5-13.9 1.6-19.2 0.6-2.8 2.1-6 8.6-6 5.1 0 6.6 2.2 7.3 4.2 1.3 3.8 2 8.5 2.1 14.2l0.1 2.7h40.7l-0.1-2.8c-0.3-12.4-5-23.1-14.1-31.6-9-8.6-21.2-12.9-36.1-12.9-15.7 0-28.2 5.6-37 16.7-8.7 10.9-13.1 24.5-13.1 40.3 0 11.2 1.5 20.7 4.6 28.1l0.7 1.9h-15.7c-0.6 0-1 0-1.3-0.1l-1-0.1-0.2-1.1c0-0.4-0.1-0.9-0.1-1.7v-53.9q0-1.2 0.1-1.8l0.2-1 1-0.2q0.5 0 1.2 0h8.3v-24.6h-25.8v41.6h4.8v6.6h-1.2v30.1h-3.9v27.4 3.4h54v-15.9h-5.8v-5.1h14.8v5.1h-5.9v15.9h5.5c2.6 0.7 4.9 1.2 7.1 1.6 3.4 0.5 6.5 0.7 9.3 0.7 5.6 0 10.4-0.7 14.2-2zm-118.6-121.7h24.5v0.2h0.2v9.6h28.6v30.1h-10.8q0 0.1 0 0.3v53.9q0 0.1 0 0.2h11.5c-2.7-7.4-4.1-16.5-4.1-27.2 0-16.5 4.7-30.6 13.7-42 5.5-6.9 12.2-11.7 20.1-14.6h-15.9v-13h17.3v-4.7h-85.1zm-120.1 9.6h19.5v18.5q2.4-5.9 6.8-9.9c5.9-5.3 12.5-9 19.6-10.8 3.6-0.9 7.1-1.4 10.6-1.7 3.3-0.3 6.2-0.4 8.8-0.4q3.4 0 7.2 0.2c2.6 0.1 5.3 0.3 8 0.6 8.3 1.1 16.1 4.1 23.1 8.9q3.7 2.5 6.3 6.2v-11.4h31.8v-7.1h-83.9v-10h-11.3v11.4h-46.5zm-126.3-5.1v5.3h41.7l1.3-0.2h37.9l23.1 34.3v-21.5h-2.5v-6.5h7.9v-11.9h-13.3v-15h-76.3v15.5zm246.7 113.2v4h21v-33.9h3.9v-27h-8.3v-6.6h4.8v-41.6h-29.1v20.5l-2.6-6.1c-1.8-4.1-4.5-7.3-7.9-9.7-6.7-4.5-14.1-7.4-22-8.4-2.6-0.3-5.2-0.5-7.7-0.6-2.5-0.1-4.9-0.2-7.2-0.2-2.4 0-5.3 0.1-8.5 0.4-3.3 0.2-6.7 0.8-10.2 1.6-6.6 1.8-12.8 5.2-18.4 10.2-5.2 4.7-8.1 11.8-8.6 21.2l-2.8-0.1v-29h-16.7v60.3h4.3v6.6h-12.6v-6.6h5.2v-60.3h-11v3.5h2v6.5h-7.5v30.5l-27.3-40.5h-35l-1.4 0.2h-45.6v-2.1h-0.2v-9.6h-12.8v21.3h-0.7v15.4h10.9l0.1 0.8c0.1 0.4 0.1 1 0.1 1.8v32.9h0.1v11.3h-0.1v9.7c0 0.8 0 1.3-0.1 1.7l-0.1 1.1-1.1 0.1q-0.4 0.1-1 0.1h-30.4v24.6h103.2v-13.6h-10.3v-14.1h21.5v3.1h-18.3v7.9h10.2v16.7h12.2v-40.7l26.3 40.7h51.2v-3.4h6.6v3.4h3.4c1.1 0.3 2.2 0.6 3.4 0.8q5.1 1.1 10 1.4c3.2 0.1 6.2 0.2 8.7 0.2 2.2 0 5.3-0.2 9.5-0.5 3.4-0.2 7.1-0.9 11-1.9h0.4 32.4v-4h-4.8v-6.6h12.6v6.6zm-3.1 6.7h-32.2c-4 1-7.8 1.7-11.4 2-4.2 0.3-7.4 0.4-9.6 0.4-2.6 0-5.6 0-8.8-0.2-3.5-0.2-7-0.6-10.5-1.4-1.2-0.2-2.3-0.5-3.4-0.8h-2.9v6.6h-2.4-39.3v8.5h103.1v-12.9h12.4v8.4h5zm-251.4-51.3v-32.9q0-0.2 0-0.3h-10.8v-17.7h-7.8v40.1h-8.6v10.8zm427.8-32.8v36.7l13.3-0.1v-64.3h-24.1v24.7h8.4c0.5 0 0.8 0 1.2 0.1l1 0.1 0.1 1.1q0.1 0.6 0.1 1.7zm39.2-0.2q0 0.2 0 0.4v7.8h10.5v-7.8q0-0.2 0-0.4zm10.5 54.3q0-0.2 0-0.3v-14.1h-10.5c0 0.1 0 14.3 0 14.4zm43.4 45.2v-15.2l-72.2 0.1v15.1zm55.6-27.9v-71.7h-2.7v84.4h-38v-84.3h-16.4q0 0.1 0 0.2v53.8q0 0.1 0 0.3h10.9v30h-6.7v3.9h62v-16.6z"/><path fill-rule="evenodd" class="b" d="m238.6 154.7c0.7 0.6 1 1.4 1 2.4 0 0.1 0 0.4-0.1 1.2q-0.1 0.4-0.4 1.3l-0.2 0.3q-0.6 0.9-1.9 1.7-0.4 0.3-1.2 0.5h-0.2-7.7c-1.4-0.4-2.1-0.8-2.5-1.2-1.1-1.1-1.7-2.2-1.9-3.5v-1-1.5l0.9-3.4-8.1-0.1h-31.7v-38.8l2.7-0.1c0.5 8 3.1 14.3 7.8 18.8 4.9 4.7 11.7 8.9 20.3 12.7q3.8 1.6 8 3.4 1.6 0.7 3.4 1.4h1.1l-0.1 0.4q2.2 0.9 4.5 1.7 0.7 0.3 1.4 0.7 0.8 0.3 1.7 0.7 1.7 0.9 3.2 2.4zm-19.3-6.1q-2.6-1.1-5-2.1c-8.8-3.9-16-8.3-21.1-13.2q-3.7-3.6-5.9-8.5v23.8zm17.6 8.5c0-0.3-0.1-0.4-0.2-0.4q-1.2-1.2-2.6-1.9-0.8-0.4-1.5-0.7-0.7-0.4-1.3-0.6-2.1-0.8-4.1-1.6l-0.9 3.5v1.6c0 0.7 0.4 1.3 1.1 2 0 0 0.3 0.2 1 0.4h6.9c0.2-0.1 0.3-0.1 0.3-0.1 0.6-0.4 0.9-0.7 1-0.8q0.1-0.4 0.2-0.6c0-0.5 0.1-0.7 0.1-0.8z"/><path fill-rule="evenodd" class="b" d="m75.2 102.2h10.7v59.9h-10.5c-0.6 0-1 0-1.3 0l-1.1-0.2-0.1-1q-0.1-0.6-0.1-1.8v-53.9q0-1.2 0.1-1.7l0.1-1.1 1.1-0.1q0.4-0.1 1.1-0.1zm0.3 56.9q0 0.2 0 0.3h7.7v-54.5h-7.7q0 0.2 0 0.3z"/><path fill-rule="evenodd" class="b" d="m291.2 103.4q0.1 0.6 0.1 1.8v53.9q0 1.1-0.1 1.7l-0.1 1.2-8 0.1h-0.3c-1.6-0.2-2.3-1.6-2.3-3.9 0.3-2.4 0.4-4.7 0.4-7.1 0-12.1-4.5-20.7-13.4-25.8-6.9-3.9-14.9-7.4-23.8-10.2l-2-0.7-3.1-0.9c-0.9-0.2-1.5-0.4-2.1-0.6q-1.1-0.4-2-0.7c-3.5-1.4-4.6-2.5-4.9-2.9q-1-1.2-1-3.6 0-3.2 1.5-4.6 1.4-1.4 4.7-1.4c3.6 0 4.8 0.9 5 1.1 0.8 0.7 1.3 1.5 1.6 2.2l0.1 0.3q0.1 0.7 0.1 1.3 0.1 0.8 0.1 1.4v6.4h38.9v-4.7q0-2.1-0.1-4l-0.1-1.5h8.4c0.5 0 0.9 0 1.2 0.1l1 0.1zm-52.2 2.6q0-0.6 0-1.2-0.1-0.5-0.1-1-0.3-0.5-0.9-1c0 0-0.8-0.4-3.1-0.4-1.4 0-2.5 0.3-2.9 0.7-0.3 0.2-0.6 1.1-0.6 2.6 0 1.1 0.2 1.7 0.4 1.9 0 0 0.8 0.8 3.7 2q0.9 0.3 2 0.7 0.7 0.2 1.5 0.4zm49.6-0.8q0-0.1 0-0.3h-5.2q0 1.4 0 2.8v7.4h-31.2c6.1 2.3 11.7 4.9 16.7 7.8 9.9 5.6 14.9 15.1 14.9 28.2q0 3.8-0.5 7.2c0 0.5 0.1 0.9 0.1 1.1l5.2-0.1c0-0.1 0-54 0-54.1z"/><path fill-rule="evenodd" class="b" d="m240.1 76q3.7 0.2 7.5 0.6 11.3 1.5 20.8 8 9.5 6.5 9.5 23.1v1.9h-33.5v-3.6q0-0.7 0-1.6-0.1-0.9-0.3-1.8-0.6-2.1-2.5-3.9-2-1.7-6.8-1.7-4.4 0-6.7 2.2-2.2 2.2-2.2 6.5 0 3.3 1.5 5.3 1.5 2 6.2 3.8 0.9 0.3 1.9 0.7 1.1 0.3 2.3 0.6 16.3 4.7 28.3 11.6 12.1 6.8 12.1 23.4 0 3.6-0.5 6.8 0 0 0 0c0 6 3.4 6.9 4.9 7h0.6l7.4-0.2c0.7-0.1 1.3-0.3 1.9-0.6q1.5-0.7 1.5-5v-53.9q0-4.3-1.5-5-1.5-0.7-3.5-0.7h-5.8v-19.1h52.5v19.1h-5.6q-2.2 0-3.7 0.7-1.5 0.7-1.5 5v53.9q0 4.3 1.5 5 1.5 0.8 3.7 0.8h20.5q-7.2-11.5-7.2-32.7 0-23 12.5-38.7 12.5-15.7 34.8-15.7 21.5 0 34.3 12.2 12.8 12.1 13.2 29.7h-35.2q-0.1-9-2.3-15.1-2.1-6-9.8-6-9.6 0-11.3 8.2-1.7 8.2-1.7 19.7v11.3c0 8.3-0.4 15.3 1.6 20.1 2 4.9 7.7 6.2 12.8 6.2 4.5 0 8.6-1 9.3-1.5q4.1-2.6 4.1-5.6v-3.2q0-1.5-1.1-2.2-1-0.6-2.2-0.8-0.9-0.3-1.6-0.3h-3.8v-18.9h48.8v18.9h-0.9q-3.4 0-4.3 1.9-0.9 1.8-1.2 5.4v7.1h19.8q2.1 0 3.5-0.8 1.5-0.7 1.5-5v-53.7q0-4.3-1.5-5.1-1.4-0.7-3.5-0.7h-5.8v-19.2h47.5v19.2h-0.7q-3.1 0-4.1 1.3-0.9 1.2-0.9 4.6v13.3h21.4v-13.3q0-2.5-0.6-4.2-0.7-1.7-4.6-1.7h-0.7v-19.2h123.7v19.1h-32.5v84.5h-27v-84.4h-22.8q-1.7 0-3.1 0.9-1.4 0.9-1.4 4.9v53.7q0 4 1.4 4.9 1.4 0.9 3.1 0.9h6.4v19.1h-47.8v-19.1h0.9q2.1 0 3.5-0.8 1.5-0.7 1.5-5v-19.5h-21.4v19.5q0 4.3 1.2 5 1.3 0.8 3.8 0.8h0.9v19.1h-95.3q-0.6 0.2-1.2 0.4-5.3 1.9-13.3 1.9-4 0-8.9-0.7c-2.4-0.4-4.8-0.9-7.2-1.6h-123.1q-5.7 1.5-11.1 1.9-6.1 0.5-9.2 0.5-3.8 0-8.6-0.2-4.7-0.3-9.7-1.3c-1.2-0.2-2.4-0.6-3.6-0.9h-59.9l-30.5-47.2v47.2h-113.1v-19.1h27.7q2.1 0 3.5-0.8 1.5-0.7 1.5-5v-53.9q0-4.3-1.5-5-1.4-0.7-3.5-0.7h-5.8v-19.1h52.6v19.1h-5.7q-2.2 0-3.7 0.7-1.4 0.7-1.4 5v53.9q0 4.3 1.4 5 1.5 0.8 3.7 0.8h13.5v-84.8h30.8l31.6 46.8v-46.8h30.8v74h39q-0.1 0.6-0.1 1.2v2.1q0.3 3.1 2.7 5.5c1 1 2.4 1.6 4.3 2h8.1q1.5-0.4 2.6-1 2.2-1.3 3.1-3 0.4-1.2 0.6-2.2 0.1-1 0.1-1.6 0-2.7-1.8-4.4-1.8-1.7-3.9-2.8-0.9-0.5-1.7-0.8-0.9-0.4-1.6-0.7-4.7-1.8-8.8-3.6-4.2-1.7-8-3.3-12.5-5.5-19.5-12.2-7-6.7-7-19.7 0-15.2 7.8-22.3 7.9-7.1 17.2-9.5 5-1.2 9.8-1.5 4.7-0.4 8.3-0.4 3.3 0 7 0.1zm-15.2 1.8c-3.1 0.2-6.3 0.8-9.5 1.5-5.9 1.6-11.5 4.7-16.5 9.2-4.9 4.4-7.3 11.5-7.3 21.1 0 8.2 2.2 14.5 6.5 18.6 4.5 4.3 10.9 8.3 19.1 11.8q3.7 1.7 7.9 3.4c2.7 1.1 5.6 2.3 8.7 3.5q0.8 0.4 1.7 0.8 0.9 0.3 1.8 0.8 2.3 1.2 4.3 3.1 2.3 2.2 2.3 5.5 0 0.7-0.2 1.9-0.2 1.1-0.7 2.4v0.2l-0.1 0.1q-1.1 2-3.6 3.5-1.2 0.8-3 1.2h-0.2-8.5-0.1c-2.3-0.5-4-1.3-5.1-2.4-1.9-1.9-3-4-3.2-6.4v-0.6-1.3h-38.9v-74h-27.7v50.3l-2.8-4.2-31.1-46.1h-28.5v84.7h-14.8c-1.9 0-3.4-0.3-4.6-0.9-2.1-1-2.3-4.1-2.3-6.4v-53.9c0-2.2 0.2-5.3 2.3-6.4q1.9-0.9 4.4-0.9h4.1v-16h-49.4v16h4c1.8 0 3.2 0.3 4.4 0.9 2.1 1.1 2.4 4.2 2.4 6.4v53.9c0 2.3-0.3 5.4-2.4 6.4q-1.8 0.9-4.2 0.9h-26.2v16h110v-50.9l2.9 4.4 30 46.5h59.3l0.2 0.1c1.2 0.3 2.3 0.6 3.5 0.8q4.9 1.1 9.5 1.3c3.1 0.2 6 0.2 8.5 0.2 2 0 5.1-0.1 9.1-0.4 3.4-0.3 7-0.9 10.8-1.9l0.2-0.1h123.5l0.2 0.1c2.7 0.7 5 1.3 7.1 1.6 3.1 0.4 6.1 0.7 8.6 0.7 5.2 0 9.5-0.6 12.8-1.8q0.4-0.2 0.7-0.3l0.4-0.2 0.3-0.1h94v-16c-1.6 0-2.9-0.4-3.9-0.9-1.4-0.8-2-2.8-2-6.4v-21.1h24.6v21.1c0 2.3-0.3 5.4-2.4 6.4q-1.5 0.8-3.5 0.9v16h44.7v-16h-4.9q-2.2 0-4-1.1c-1.4-0.9-2.1-2.9-2.1-6.2v-53.7c0-3.3 0.7-5.3 2.1-6.2q1.8-1.1 4-1.2h24.4v84.4h23.9v-84.4h32.5v-16.1h-120.6v16.2c1.5 0 4.2 0.4 5.1 2.6 0.5 1.4 0.8 2.9 0.8 4.8v14.9h-24.6v-14.9c0-2.7 0.4-4.4 1.3-5.6 0.8-1.1 2.3-1.7 4.5-1.8v-16.2h-44.4v16.1h4c1.8 0 3.2 0.4 4.4 1 2.1 1 2.4 4.1 2.4 6.4v53.7c0 2.3-0.3 5.4-2.4 6.4q-1.8 0.9-4.2 0.9h-21.3v-8.6c0.2-2.7 0.6-4.7 1.3-6.1q1.2-2.5 5-2.7v-15.9h-45.7v15.9h2.3q0.9 0 2 0.3 1.4 0.2 2.7 1c0.8 0.5 1.7 1.6 1.7 3.5v3.2c0 2.6-1.6 4.9-4.8 6.9-1.1 0.7-5.5 1.7-10.1 1.7-7.4 0-12.4-2.4-14.3-7.1-1.8-4.5-1.8-10.5-1.7-17.5q0-1.6 0-3.2v-11.3c0-7.7 0.6-14.5 1.7-20 0.9-4.4 3.9-9.5 12.9-9.5 7.2 0 10.1 3.9 11.3 7.1 1.3 3.8 2.1 8.6 2.3 14.1h32.1c-0.6-10.6-4.9-19.7-12.7-27.1-8.2-7.8-19.3-11.7-33.2-11.7-14.3 0-25.6 5.1-33.6 15.1-8.1 10.1-12.2 22.8-12.2 37.7 0 13.7 2.4 24.5 7 31.8l1.5 2.4h-23.1c-1.9 0-3.4-0.3-4.6-0.9-2.1-1-2.3-4.1-2.3-6.4v-53.9c0-2.2 0.2-5.3 2.3-6.4q1.8-0.9 4.4-0.9h4.1v-16h-49.4v16h4c1.8 0 3.2 0.3 4.4 0.9 2.1 1.1 2.4 4.2 2.4 6.4v53.9c0 2.3-0.3 5.4-2.4 6.4q-1 0.5-2.4 0.8h-0.1-0.1l-7.4 0.1h-0.6c-1.6-0.1-6.4-1-6.4-8.4v-0.1-0.1-0.2q0.4-3 0.4-6.5c0-10.5-3.6-17.8-11.2-22.1-7.9-4.5-17.4-8.3-28-11.4-0.8-0.2-1.7-0.4-2.4-0.7q-1-0.4-1.9-0.7c-3.5-1.3-5.8-2.7-6.9-4.3-1.3-1.5-1.9-3.6-1.9-6.2 0-3.3 0.9-5.9 2.8-7.6 1.8-1.8 4.4-2.7 7.7-2.7 3.6 0 6.2 0.7 7.8 2.1q2.3 2.1 3 4.6v0.1l0.1 0.1q0.1 1 0.2 1.9 0.1 1 0.1 1.8v2.1h30.3v-0.4c0-10.5-2.9-17.8-8.8-21.8-6.1-4.2-12.9-6.8-20.1-7.7-2.4-0.3-4.9-0.5-7.3-0.6-2.5-0.1-4.8-0.2-7-0.2-2.3 0-5.1 0.2-8.2 0.4z"/><path class="a" d="m636.3 96.7h-14.7v-13.6h14.7z"/><path class="a" d="m11.6 181.2h-11v-13.6h11z"/><path class="a" d="m309.5 192.5h-21.6v-10.1h21.6z"/><path class="a" d="m164.8 81.7h-11.1v-15.5h11.1z"/><path class="a" d="m39 102.6h-13.7v-36.7h13.7z"/><path class="a" d="m45.1 102.6h-13v-5.8h13z"/><path fill-rule="evenodd" class="a" d="m634.2 97.8c-0.2-0.1-0.6-0.6-0.9-1l-0.4-0.4c-8.1-9.3-34.8-41.1-34.8-58.6 0-19.5 15.3-35.5 34.8-36.4l0.9-0.1h1.4l0.4 0.1c19.3 0.7 35.1 17 35.1 36.4 0 17.4-26.6 49.2-34.8 58.5l-0.3 0.4c-0.4 0.5-0.8 0.9-1 1.1l-0.2 0.2zm0.2-82.8c-12.3 0-22.3 10-22.3 22.3 0 12.3 10 22.3 22.3 22.3 12.3 0 22.3-10 22.3-22.3 0-12.3-10-22.3-22.3-22.3z"/><path fill-rule="evenodd" class="b" d="m635.6 0.3c20 0.7 36.1 17.3 36.1 37.5 0 17.8-26.8 49.8-35 59.2l-0.3 0.4c-0.4 0.5-0.8 1-1 1.2l-1 0.9-1-0.9c-0.1-0.2-0.6-0.7-1-1.2l-0.3-0.3c-8.2-9.4-35-41.5-35-59.3 0-20 15.9-36.6 35.8-37.5h2.7zm-2.1 2.1h-0.6c-18.9 0.9-33.7 16.4-33.7 35.4 0 13.5 17.8 38.8 34.5 57.9l0.3 0.3q0.2 0.2 0.4 0.4 0.2-0.2 0.4-0.4l0.3-0.4c16.7-19.1 34.5-44.3 34.5-57.8 0-18.9-15.3-34.7-34.1-35.4h-0.8zm-22.4 34.8c0-12.9 10.4-23.3 23.3-23.3 12.9 0 23.3 10.4 23.3 23.3 0 12.9-10.4 23.4-23.3 23.4-12.9 0-23.3-10.5-23.3-23.4zm44.5 0c0-11.7-9.5-21.2-21.2-21.2-11.7 0-21.2 9.5-21.2 21.2 0 11.7 9.5 21.2 21.2 21.2 11.7 0 21.2-9.5 21.2-21.2z"/><path class="a" d="m702.1 67.2c-11.9 0-21.3-9.3-21.3-21.2v-33.2h12.9v32.9c0 4.7 3.7 8.5 8.4 8.5 4.7 0 8.4-3.8 8.4-8.5v-32.9h12.8v33.2c0 11.7-9.5 21.2-21.2 21.2z"/><path fill-rule="evenodd" class="b" d="m724.4 46c0 12.4-10 22.3-22.3 22.3-12.4 0-22.3-9.9-22.3-22.3v-34.3h14.9v34c0 4.1 3.3 7.4 7.4 7.4 4.1 0 7.4-3.3 7.4-7.4v-34h14.9zm-12.8-32.1v31.9c0 5.2-4.3 9.5-9.5 9.5-5.2 0-9.5-4.3-9.5-9.5v-31.9h-10.7v32.1c0 11.4 8.9 20.2 20.2 20.2 11.1 0 20.2-9 20.2-20.2v-32.1z"/><path class="a" d="m750.3 67.2v-41.8h-14.7v-12.7h39.4v-7.2l11 13-11 13v-6.1h-12v41.8z"/><path fill-rule="evenodd" class="b" d="m787.4 18.5l-13.4 15.9v-8h-10v41.9h-14.8v-41.9h-14.7v-14.7h39.5v-9zm-11.3-4.8h-39.5v10.5h14.7v41.9h10.6v-41.9h14.2v4.3l8.5-10-8.5-10.1z"/></svg>