<svg version="1.2" xmlns="http://www.w3.org/2000/svg" viewBox="0 0 596 600" width="596" height="600"><style>.a{fill:#f00;stroke:#fff;stroke-miterlimit:10;stroke-width:20}.b{fill:#fff}.c{fill:none;stroke:#fff;stroke-miterlimit:10;stroke-width:20}</style><path fill-rule="evenodd" class="a" d="m297.7 587.5c-158.9 0-287.2-128.4-287.2-287.2 0-158.9 128.3-287.3 287.2-287.3 158.8 0 287.2 128.4 287.2 287.3 0 158.8-128.4 287.2-287.2 287.2z"/><path class="b" d="m533.4 132.3l-235.7 168v-290c21.7-2 80.3 2.3 140.9 35.2 54.7 29.9 83.7 67.6 94.8 86.8z"/><path fill-rule="evenodd" class="c" d="m297.7 587.5c-158.9 0-287.2-128.4-287.2-287.2 0-158.9 128.3-287.3 287.2-287.3 158.8 0 287.2 128.4 287.2 287.3 0 158.8-128.4 287.2-287.2 287.2z"/></svg>